<?xml version="1.0" encoding="utf-8"?>
<!-- Generator: Adobe Illustrator 19.0.0, SVG Export Plug-In . SVG Version: 6.00 Build 0)  -->
<svg version="1.1" id="Layer_1" xmlns="http://www.w3.org/2000/svg" xmlns:xlink="http://www.w3.org/1999/xlink" x="0px" y="0px"
	 viewBox="0 0 96 96" style="enable-background:new 0 0 96 96;" xml:space="preserve">
<style type="text/css">
	.st0{fill:#333333;}
</style>
<g id="XMLID_1_">
	<path id="XMLID_3_" class="st0" d="M75,16.5c-1.3-1-3-1.3-4.5-0.8L36.3,26c-2.2,0.7-3.7,2.7-3.7,4.9v25.8c-0.6-0.1-1.1-0.2-1.7-0.2
		c-6.6,0-12,5.4-12,12c0,6.6,5.4,12,12,12s12-5.4,12-12V34.7l23.9-7.2v22.4c-0.6-0.1-1.1-0.2-1.7-0.2c-6.6,0-12,5.4-12,12
		c0,6.6,5.4,12,12,12s12-5.4,12-12V20.6C77.1,19,76.3,17.5,75,16.5z"/>
</g>
</svg>
